<svg width="1920" height="1080" viewBox="0 0 1920 1080" fill="none" xmlns="http://www.w3.org/2000/svg">
<g clip-path="url(#clip0_533_1426)" filter="url(#filter0_f_533_1426)">
<path d="M1055.51 845.189L1061.55 842.843L1055.16 843.936L1057.78 838.024L1054.06 843.309L1051.71 837.266L1052.8 843.656L1046.89 841.037L1052.18 844.763L1046.13 847.109L1052.52 846.016L1049.9 851.928L1053.63 846.643L1055.98 852.687L1054.88 846.297L1060.8 848.915L1055.51 845.189Z" fill="#7D7D7D" fill-opacity="0.5"/>
</g>
<g clip-path="url(#clip1_533_1426)" filter="url(#filter1_f_533_1426)">
<path d="M672.51 744.189L678.554 741.843L672.164 742.936L674.782 737.024L671.057 742.309L668.71 736.266L669.804 742.656L663.891 740.037L669.176 743.763L663.133 746.109L669.523 745.016L666.904 750.928L670.63 745.643L672.976 751.687L671.883 745.297L677.795 747.915L672.51 744.189Z" fill="#7D7D7D" fill-opacity="0.5"/>
</g>
<g clip-path="url(#clip2_533_1426)" filter="url(#filter2_f_533_1426)">
<path d="M793.51 554.189L799.554 551.843L793.164 552.936L795.782 547.024L792.057 552.309L789.71 546.266L790.804 552.656L784.891 550.037L790.176 553.763L784.133 556.109L790.523 555.016L787.904 560.928L791.63 555.643L793.976 561.687L792.883 555.297L798.795 557.915L793.51 554.189Z" fill="#7D7D7D" fill-opacity="0.5"/>
</g>
<g clip-path="url(#clip3_533_1426)" filter="url(#filter3_f_533_1426)">
<path d="M551.51 462.189L557.554 459.843L551.164 460.936L553.782 455.024L550.057 460.309L547.71 454.266L548.804 460.656L542.891 458.037L548.176 461.763L542.133 464.109L548.523 463.016L545.904 468.928L549.63 463.643L551.976 469.687L550.883 463.297L556.795 465.915L551.51 462.189Z" fill="#7D7D7D" fill-opacity="0.5"/>
</g>
<g clip-path="url(#clip4_533_1426)" filter="url(#filter4_f_533_1426)">
<path d="M649.51 361.189L655.554 358.843L649.164 359.936L651.782 354.024L648.057 359.309L645.71 353.266L646.804 359.656L640.891 357.037L646.176 360.763L640.133 363.109L646.523 362.016L643.904 367.928L647.63 362.643L649.976 368.687L648.883 362.297L654.795 364.915L649.51 361.189Z" fill="#7D7D7D" fill-opacity="0.5"/>
</g>
<g clip-path="url(#clip5_533_1426)" filter="url(#filter5_f_533_1426)">
<path d="M763.51 155.189L769.554 152.843L763.164 153.936L765.782 148.024L762.057 153.309L759.71 147.266L760.804 153.656L754.891 151.037L760.176 154.763L754.133 157.109L760.523 156.016L757.904 161.928L761.63 156.643L763.976 162.687L762.883 156.297L768.795 158.915L763.51 155.189Z" fill="#7D7D7D" fill-opacity="0.5"/>
</g>
<g clip-path="url(#clip6_533_1426)" filter="url(#filter6_f_533_1426)">
<path d="M880.51 237.189L886.554 234.843L880.164 235.936L882.782 230.024L879.057 235.309L876.71 229.266L877.804 235.656L871.891 233.037L877.176 236.763L871.133 239.109L877.523 238.016L874.904 243.928L878.63 238.643L880.976 244.687L879.883 238.297L885.795 240.915L880.51 237.189Z" fill="#7D7D7D" fill-opacity="0.5"/>
</g>
<g clip-path="url(#clip7_533_1426)" filter="url(#filter7_f_533_1426)">
<path d="M1049.51 170.189L1055.55 167.843L1049.16 168.936L1051.78 163.024L1048.06 168.309L1045.71 162.266L1046.8 168.656L1040.89 166.037L1046.18 169.763L1040.13 172.109L1046.52 171.016L1043.9 176.928L1047.63 171.643L1049.98 177.687L1048.88 171.297L1054.8 173.915L1049.51 170.189Z" fill="#7D7D7D" fill-opacity="0.5"/>
</g>
<g clip-path="url(#clip8_533_1426)" filter="url(#filter8_f_533_1426)">
<path d="M1431.51 252.189L1437.55 249.843L1431.16 250.936L1433.78 245.024L1430.06 250.309L1427.71 244.266L1428.8 250.656L1422.89 248.037L1428.18 251.763L1422.13 254.109L1428.52 253.016L1425.9 258.928L1429.63 253.643L1431.98 259.687L1430.88 253.297L1436.8 255.915L1431.51 252.189Z" fill="#7D7D7D" fill-opacity="0.5"/>
</g>
<g clip-path="url(#clip9_533_1426)" filter="url(#filter9_f_533_1426)">
<path d="M1165.51 331.189L1171.55 328.843L1165.16 329.936L1167.78 324.024L1164.06 329.309L1161.71 323.266L1162.8 329.656L1156.89 327.037L1162.18 330.763L1156.13 333.109L1162.52 332.016L1159.9 337.928L1163.63 332.643L1165.98 338.687L1164.88 332.297L1170.8 334.915L1165.51 331.189Z" fill="#7D7D7D" fill-opacity="0.5"/>
</g>
<g clip-path="url(#clip10_533_1426)" filter="url(#filter10_f_533_1426)">
<path d="M1096.51 543.189L1102.55 540.843L1096.16 541.936L1098.78 536.024L1095.06 541.309L1092.71 535.266L1093.8 541.656L1087.89 539.037L1093.18 542.763L1087.13 545.109L1093.52 544.016L1090.9 549.928L1094.63 544.643L1096.98 550.687L1095.88 544.297L1101.8 546.915L1096.51 543.189Z" fill="#7D7D7D" fill-opacity="0.5"/>
</g>
<g clip-path="url(#clip11_533_1426)" filter="url(#filter11_f_533_1426)">
<path d="M1484.51 656.189L1490.55 653.843L1484.16 654.936L1486.78 649.024L1483.06 654.309L1480.71 648.266L1481.8 654.656L1475.89 652.037L1481.18 655.763L1475.13 658.109L1481.52 657.016L1478.9 662.928L1482.63 657.643L1484.98 663.687L1483.88 657.297L1489.8 659.915L1484.51 656.189Z" fill="#7D7D7D" fill-opacity="0.5"/>
</g>
<g clip-path="url(#clip12_533_1426)" filter="url(#filter12_f_533_1426)">
<path d="M1247.51 665.189L1253.55 662.843L1247.16 663.936L1249.78 658.024L1246.06 663.309L1243.71 657.266L1244.8 663.656L1238.89 661.037L1244.18 664.763L1238.13 667.109L1244.52 666.016L1241.9 671.928L1245.63 666.643L1247.98 672.687L1246.88 666.297L1252.8 668.915L1247.51 665.189Z" fill="#7D7D7D" fill-opacity="0.5"/>
</g>
<g clip-path="url(#clip13_533_1426)" filter="url(#filter13_f_533_1426)">
<path d="M1336.51 548.189L1342.55 545.843L1336.16 546.936L1338.78 541.024L1335.06 546.309L1332.71 540.266L1333.8 546.656L1327.89 544.037L1333.18 547.763L1327.13 550.109L1333.52 549.016L1330.9 554.928L1334.63 549.643L1336.98 555.687L1335.88 549.297L1341.8 551.915L1336.51 548.189Z" fill="#7D7D7D" fill-opacity="0.5"/>
</g>
<g clip-path="url(#clip14_533_1426)" filter="url(#filter14_f_533_1426)">
<path d="M1476.51 522.189L1482.55 519.843L1476.16 520.936L1478.78 515.024L1475.06 520.309L1472.71 514.266L1473.8 520.656L1467.89 518.037L1473.18 521.763L1467.13 524.109L1473.52 523.016L1470.9 528.928L1474.63 523.643L1476.98 529.687L1475.88 523.297L1481.8 525.915L1476.51 522.189Z" fill="#7D7D7D" fill-opacity="0.5"/>
</g>
<g clip-path="url(#clip15_533_1426)" filter="url(#filter15_f_533_1426)">
<path d="M1470.51 875.189L1476.55 872.843L1470.16 873.936L1472.78 868.024L1469.06 873.309L1466.71 867.266L1467.8 873.656L1461.89 871.037L1467.18 874.763L1461.13 877.109L1467.52 876.016L1464.9 881.928L1468.63 876.643L1470.98 882.687L1469.88 876.297L1475.8 878.915L1470.51 875.189Z" fill="#7D7D7D" fill-opacity="0.5"/>
</g>
<g clip-path="url(#clip16_533_1426)" filter="url(#filter16_f_533_1426)">
<path d="M1428.51 974.057L1434.55 971.71L1428.16 972.804L1430.78 966.891L1427.06 972.176L1424.71 966.133L1425.8 972.523L1419.89 969.904L1425.18 973.63L1419.13 975.976L1425.52 974.883L1422.9 980.795L1426.63 975.51L1428.98 981.554L1427.88 975.164L1433.8 977.782L1428.51 974.057Z" fill="#7D7D7D" fill-opacity="0.5"/>
</g>
<g clip-path="url(#clip17_533_1426)" filter="url(#filter17_f_533_1426)">
<path d="M1637.51 914.057L1643.55 911.71L1637.16 912.804L1639.78 906.891L1636.06 912.176L1633.71 906.133L1634.8 912.523L1628.89 909.904L1634.18 913.63L1628.13 915.976L1634.52 914.883L1631.9 920.795L1635.63 915.51L1637.98 921.554L1636.88 915.164L1642.8 917.782L1637.51 914.057Z" fill="#7D7D7D" fill-opacity="0.5"/>
</g>
<g clip-path="url(#clip18_533_1426)" filter="url(#filter18_f_533_1426)">
<path d="M1795.51 954.189L1801.55 951.843L1795.16 952.936L1797.78 947.024L1794.06 952.309L1791.71 946.266L1792.8 952.656L1786.89 950.037L1792.18 953.763L1786.13 956.109L1792.52 955.016L1789.9 960.928L1793.63 955.643L1795.98 961.687L1794.88 955.297L1800.8 957.915L1795.51 954.189Z" fill="#7D7D7D" fill-opacity="0.5"/>
</g>
<g clip-path="url(#clip19_533_1426)" filter="url(#filter19_f_533_1426)">
<path d="M1193.51 983.189L1199.55 980.843L1193.16 981.936L1195.78 976.024L1192.06 981.309L1189.71 975.266L1190.8 981.656L1184.89 979.037L1190.18 982.763L1184.13 985.109L1190.52 984.016L1187.9 989.928L1191.63 984.643L1193.98 990.687L1192.88 984.297L1198.8 986.915L1193.51 983.189Z" fill="#7D7D7D" fill-opacity="0.5"/>
</g>
<g clip-path="url(#clip20_533_1426)" filter="url(#filter20_f_533_1426)">
<path d="M1506.51 355.189L1512.55 352.843L1506.16 353.936L1508.78 348.024L1505.06 353.309L1502.71 347.266L1503.8 353.656L1497.89 351.037L1503.18 354.763L1497.13 357.109L1503.52 356.016L1500.9 361.928L1504.63 356.643L1506.98 362.687L1505.88 356.297L1511.8 358.915L1506.51 355.189Z" fill="#7D7D7D" fill-opacity="0.5"/>
</g>
<g clip-path="url(#clip21_533_1426)" filter="url(#filter21_f_533_1426)">
<path d="M1634.51 214.189L1640.55 211.843L1634.16 212.936L1636.78 207.024L1633.06 212.309L1630.71 206.266L1631.8 212.656L1625.89 210.037L1631.18 213.763L1625.13 216.109L1631.52 215.016L1628.9 220.928L1632.63 215.643L1634.98 221.687L1633.88 215.297L1639.8 217.915L1634.51 214.189Z" fill="#7D7D7D" fill-opacity="0.5"/>
</g>
<g clip-path="url(#clip22_533_1426)" filter="url(#filter22_f_533_1426)">
<path d="M1739.51 282.189L1745.55 279.843L1739.16 280.936L1741.78 275.024L1738.06 280.309L1735.71 274.266L1736.8 280.656L1730.89 278.037L1736.18 281.763L1730.13 284.109L1736.52 283.016L1733.9 288.928L1737.63 283.643L1739.98 289.687L1738.88 283.297L1744.8 285.915L1739.51 282.189Z" fill="#7D7D7D" fill-opacity="0.5"/>
</g>
<g clip-path="url(#clip23_533_1426)" filter="url(#filter23_f_533_1426)">
<path d="M1626.51 405.189L1632.55 402.843L1626.16 403.936L1628.78 398.024L1625.06 403.309L1622.71 397.266L1623.8 403.656L1617.89 401.037L1623.18 404.763L1617.13 407.109L1623.52 406.016L1620.9 411.928L1624.63 406.643L1626.98 412.687L1625.88 406.297L1631.8 408.915L1626.51 405.189Z" fill="#7D7D7D" fill-opacity="0.5"/>
</g>
<g clip-path="url(#clip24_533_1426)" filter="url(#filter24_f_533_1426)">
<path d="M1724.51 405.189L1730.55 402.843L1724.16 403.936L1726.78 398.024L1723.06 403.309L1720.71 397.266L1721.8 403.656L1715.89 401.037L1721.18 404.763L1715.13 407.109L1721.52 406.016L1718.9 411.928L1722.63 406.643L1724.98 412.687L1723.88 406.297L1729.8 408.915L1724.51 405.189Z" fill="#7D7D7D" fill-opacity="0.5"/>
</g>
<g clip-path="url(#clip25_533_1426)" filter="url(#filter25_f_533_1426)">
<path d="M1788.51 480.189L1794.55 477.843L1788.16 478.936L1790.78 473.024L1787.06 478.309L1784.71 472.266L1785.8 478.656L1779.89 476.037L1785.18 479.763L1779.13 482.109L1785.52 481.016L1782.9 486.928L1786.63 481.643L1788.98 487.687L1787.88 481.297L1793.8 483.915L1788.51 480.189Z" fill="#7D7D7D" fill-opacity="0.5"/>
</g>
<g clip-path="url(#clip26_533_1426)" filter="url(#filter26_f_533_1426)">
<path d="M1694.51 577.189L1700.55 574.843L1694.16 575.936L1696.78 570.024L1693.06 575.309L1690.71 569.266L1691.8 575.656L1685.89 573.037L1691.18 576.763L1685.13 579.109L1691.52 578.016L1688.9 583.928L1692.63 578.643L1694.98 584.687L1693.88 578.297L1699.8 580.915L1694.51 577.189Z" fill="#7D7D7D" fill-opacity="0.5"/>
</g>
<g clip-path="url(#clip27_533_1426)" filter="url(#filter27_f_533_1426)">
<path d="M1876.51 744.189L1882.55 741.843L1876.16 742.936L1878.78 737.024L1875.06 742.309L1872.71 736.266L1873.8 742.656L1867.89 740.037L1873.18 743.763L1867.13 746.109L1873.52 745.016L1870.9 750.928L1874.63 745.643L1876.98 751.687L1875.88 745.297L1881.8 747.915L1876.51 744.189Z" fill="#7D7D7D" fill-opacity="0.5"/>
</g>
<g clip-path="url(#clip28_533_1426)" filter="url(#filter28_f_533_1426)">
<path d="M1754.51 698.189L1760.55 695.843L1754.16 696.936L1756.78 691.024L1753.06 696.309L1750.71 690.266L1751.8 696.656L1745.89 694.037L1751.18 697.763L1745.13 700.109L1751.52 699.016L1748.9 704.928L1752.63 699.643L1754.98 705.687L1753.88 699.297L1759.8 701.915L1754.51 698.189Z" fill="#7D7D7D" fill-opacity="0.5"/>
</g>
<g clip-path="url(#clip29_533_1426)" filter="url(#filter29_f_533_1426)">
<path d="M1641.51 775.189L1647.55 772.843L1641.16 773.936L1643.78 768.024L1640.06 773.309L1637.71 767.266L1638.8 773.656L1632.89 771.037L1638.18 774.763L1632.13 777.109L1638.52 776.016L1635.9 781.928L1639.63 776.643L1641.98 782.687L1640.88 776.297L1646.8 778.915L1641.51 775.189Z" fill="#7D7D7D" fill-opacity="0.5"/>
</g>
<g clip-path="url(#clip30_533_1426)" filter="url(#filter30_f_533_1426)">
<path d="M346.51 338.189L352.554 335.843L346.164 336.936L348.782 331.024L345.057 336.309L342.71 330.266L343.804 336.656L337.891 334.037L343.176 337.763L337.133 340.109L343.523 339.016L340.904 344.928L344.63 339.643L346.976 345.687L345.883 339.297L351.795 341.915L346.51 338.189Z" fill="#7D7D7D" fill-opacity="0.5"/>
</g>
<g clip-path="url(#clip31_533_1426)" filter="url(#filter31_f_533_1426)">
<path d="M338.51 190.189L344.554 187.843L338.164 188.936L340.782 183.024L337.057 188.309L334.71 182.266L335.804 188.656L329.891 186.037L335.176 189.763L329.133 192.109L335.523 191.016L332.904 196.928L336.63 191.643L338.976 197.687L337.883 191.297L343.795 193.915L338.51 190.189Z" fill="#7D7D7D" fill-opacity="0.5"/>
</g>
<g clip-path="url(#clip32_533_1426)" filter="url(#filter32_f_533_1426)">
<path d="M170.51 140.189L176.554 137.843L170.164 138.936L172.782 133.024L169.057 138.309L166.71 132.266L167.804 138.656L161.891 136.037L167.176 139.763L161.133 142.109L167.523 141.016L164.904 146.928L168.63 141.643L170.976 147.687L169.883 141.297L175.795 143.915L170.51 140.189Z" fill="#7D7D7D" fill-opacity="0.5"/>
</g>
<g clip-path="url(#clip33_533_1426)" filter="url(#filter33_f_533_1426)">
<path d="M128.363 495.241L134.406 492.895L128.016 493.988L130.635 488.076L126.909 493.361L124.563 487.318L125.656 493.707L119.744 491.089L125.029 494.815L118.985 497.161L125.375 496.068L122.757 501.98L126.483 496.695L128.829 502.738L127.736 496.349L133.648 498.967L128.363 495.241Z" fill="#7D7D7D" fill-opacity="0.5"/>
</g>
<g clip-path="url(#clip34_533_1426)" filter="url(#filter34_f_533_1426)">
<path d="M85.5105 698.189L91.5537 695.843L85.1639 696.936L87.7825 691.024L84.0565 696.309L81.7104 690.266L82.8036 696.656L76.8915 694.037L82.1761 697.763L76.1328 700.109L82.5227 699.016L79.9041 704.928L83.63 699.643L85.9761 705.687L84.883 699.297L90.7951 701.915L85.5105 698.189Z" fill="#7D7D7D" fill-opacity="0.5"/>
</g>
<g clip-path="url(#clip35_533_1426)" filter="url(#filter35_f_533_1426)">
<path d="M336.51 613.189L342.554 610.843L336.164 611.936L338.782 606.024L335.057 611.309L332.71 605.266L333.804 611.656L327.891 609.037L333.176 612.763L327.133 615.109L333.523 614.016L330.904 619.928L334.63 614.643L336.976 620.687L335.883 614.297L341.795 616.915L336.51 613.189Z" fill="#7D7D7D" fill-opacity="0.5"/>
</g>
<g clip-path="url(#clip36_533_1426)" filter="url(#filter36_f_533_1426)">
<path d="M185.51 823.189L191.554 820.843L185.164 821.936L187.782 816.024L184.057 821.309L181.71 815.266L182.804 821.656L176.891 819.037L182.176 822.763L176.133 825.109L182.523 824.016L179.904 829.928L183.63 824.643L185.976 830.687L184.883 824.297L190.795 826.915L185.51 823.189Z" fill="#7D7D7D" fill-opacity="0.5"/>
</g>
<g clip-path="url(#clip37_533_1426)" filter="url(#filter37_f_533_1426)">
<path d="M321.51 932.189L327.554 929.843L321.164 930.936L323.782 925.024L320.057 930.309L317.71 924.266L318.804 930.656L312.891 928.037L318.176 931.763L312.133 934.109L318.523 933.016L315.904 938.928L319.63 933.643L321.976 939.687L320.883 933.297L326.795 935.915L321.51 932.189Z" fill="#7D7D7D" fill-opacity="0.5"/>
</g>
<g clip-path="url(#clip38_533_1426)" filter="url(#filter38_f_533_1426)">
<path d="M858.51 986.189L864.554 983.843L858.164 984.936L860.782 979.024L857.057 984.309L854.71 978.266L855.804 984.656L849.891 982.037L855.176 985.763L849.133 988.109L855.523 987.016L852.904 992.928L856.63 987.643L858.976 993.687L857.883 987.297L863.795 989.915L858.51 986.189Z" fill="#7D7D7D" fill-opacity="0.5"/>
</g>
<g clip-path="url(#clip39_533_1426)" filter="url(#filter39_f_533_1426)">
<path d="M1220.51 786.057L1226.55 783.71L1220.16 784.804L1222.78 778.891L1219.06 784.176L1216.71 778.133L1217.8 784.523L1211.89 781.904L1217.18 785.63L1211.13 787.976L1217.52 786.883L1214.9 792.795L1218.63 787.51L1220.98 793.554L1219.88 787.164L1225.8 789.782L1220.51 786.057Z" fill="#7D7D7D" fill-opacity="0.5"/>
</g>
<defs>
<filter id="filter0_f_533_1426" x="1041" y="832.133" width="25.6866" height="25.6866" filterUnits="userSpaceOnUse" color-interpolation-filters="sRGB">
<feFlood flood-opacity="0" result="BackgroundImageFix"/>
<feBlend mode="normal" in="SourceGraphic" in2="BackgroundImageFix" result="shape"/>
<feGaussianBlur stdDeviation="1.5" result="effect1_foregroundBlur_533_1426"/>
</filter>
<filter id="filter1_f_533_1426" x="658" y="731.133" width="25.6866" height="25.6866" filterUnits="userSpaceOnUse" color-interpolation-filters="sRGB">
<feFlood flood-opacity="0" result="BackgroundImageFix"/>
<feBlend mode="normal" in="SourceGraphic" in2="BackgroundImageFix" result="shape"/>
<feGaussianBlur stdDeviation="1.5" result="effect1_foregroundBlur_533_1426"/>
</filter>
<filter id="filter2_f_533_1426" x="779" y="541.133" width="25.6866" height="25.6866" filterUnits="userSpaceOnUse" color-interpolation-filters="sRGB">
<feFlood flood-opacity="0" result="BackgroundImageFix"/>
<feBlend mode="normal" in="SourceGraphic" in2="BackgroundImageFix" result="shape"/>
<feGaussianBlur stdDeviation="1.5" result="effect1_foregroundBlur_533_1426"/>
</filter>
<filter id="filter3_f_533_1426" x="537" y="449.133" width="25.6866" height="25.6866" filterUnits="userSpaceOnUse" color-interpolation-filters="sRGB">
<feFlood flood-opacity="0" result="BackgroundImageFix"/>
<feBlend mode="normal" in="SourceGraphic" in2="BackgroundImageFix" result="shape"/>
<feGaussianBlur stdDeviation="1.5" result="effect1_foregroundBlur_533_1426"/>
</filter>
<filter id="filter4_f_533_1426" x="635" y="348.133" width="25.6866" height="25.6866" filterUnits="userSpaceOnUse" color-interpolation-filters="sRGB">
<feFlood flood-opacity="0" result="BackgroundImageFix"/>
<feBlend mode="normal" in="SourceGraphic" in2="BackgroundImageFix" result="shape"/>
<feGaussianBlur stdDeviation="1.5" result="effect1_foregroundBlur_533_1426"/>
</filter>
<filter id="filter5_f_533_1426" x="749" y="142.133" width="25.6866" height="25.6866" filterUnits="userSpaceOnUse" color-interpolation-filters="sRGB">
<feFlood flood-opacity="0" result="BackgroundImageFix"/>
<feBlend mode="normal" in="SourceGraphic" in2="BackgroundImageFix" result="shape"/>
<feGaussianBlur stdDeviation="1.5" result="effect1_foregroundBlur_533_1426"/>
</filter>
<filter id="filter6_f_533_1426" x="866" y="224.133" width="25.6866" height="25.6866" filterUnits="userSpaceOnUse" color-interpolation-filters="sRGB">
<feFlood flood-opacity="0" result="BackgroundImageFix"/>
<feBlend mode="normal" in="SourceGraphic" in2="BackgroundImageFix" result="shape"/>
<feGaussianBlur stdDeviation="1.5" result="effect1_foregroundBlur_533_1426"/>
</filter>
<filter id="filter7_f_533_1426" x="1035" y="157.133" width="25.6866" height="25.6866" filterUnits="userSpaceOnUse" color-interpolation-filters="sRGB">
<feFlood flood-opacity="0" result="BackgroundImageFix"/>
<feBlend mode="normal" in="SourceGraphic" in2="BackgroundImageFix" result="shape"/>
<feGaussianBlur stdDeviation="1.5" result="effect1_foregroundBlur_533_1426"/>
</filter>
<filter id="filter8_f_533_1426" x="1417" y="239.133" width="25.6866" height="25.6866" filterUnits="userSpaceOnUse" color-interpolation-filters="sRGB">
<feFlood flood-opacity="0" result="BackgroundImageFix"/>
<feBlend mode="normal" in="SourceGraphic" in2="BackgroundImageFix" result="shape"/>
<feGaussianBlur stdDeviation="1.5" result="effect1_foregroundBlur_533_1426"/>
</filter>
<filter id="filter9_f_533_1426" x="1151" y="318.133" width="25.6866" height="25.6866" filterUnits="userSpaceOnUse" color-interpolation-filters="sRGB">
<feFlood flood-opacity="0" result="BackgroundImageFix"/>
<feBlend mode="normal" in="SourceGraphic" in2="BackgroundImageFix" result="shape"/>
<feGaussianBlur stdDeviation="1.5" result="effect1_foregroundBlur_533_1426"/>
</filter>
<filter id="filter10_f_533_1426" x="1082" y="530.133" width="25.6866" height="25.6866" filterUnits="userSpaceOnUse" color-interpolation-filters="sRGB">
<feFlood flood-opacity="0" result="BackgroundImageFix"/>
<feBlend mode="normal" in="SourceGraphic" in2="BackgroundImageFix" result="shape"/>
<feGaussianBlur stdDeviation="1.5" result="effect1_foregroundBlur_533_1426"/>
</filter>
<filter id="filter11_f_533_1426" x="1470" y="643.133" width="25.6866" height="25.6866" filterUnits="userSpaceOnUse" color-interpolation-filters="sRGB">
<feFlood flood-opacity="0" result="BackgroundImageFix"/>
<feBlend mode="normal" in="SourceGraphic" in2="BackgroundImageFix" result="shape"/>
<feGaussianBlur stdDeviation="1.5" result="effect1_foregroundBlur_533_1426"/>
</filter>
<filter id="filter12_f_533_1426" x="1233" y="652.133" width="25.6866" height="25.6866" filterUnits="userSpaceOnUse" color-interpolation-filters="sRGB">
<feFlood flood-opacity="0" result="BackgroundImageFix"/>
<feBlend mode="normal" in="SourceGraphic" in2="BackgroundImageFix" result="shape"/>
<feGaussianBlur stdDeviation="1.5" result="effect1_foregroundBlur_533_1426"/>
</filter>
<filter id="filter13_f_533_1426" x="1322" y="535.133" width="25.6866" height="25.6866" filterUnits="userSpaceOnUse" color-interpolation-filters="sRGB">
<feFlood flood-opacity="0" result="BackgroundImageFix"/>
<feBlend mode="normal" in="SourceGraphic" in2="BackgroundImageFix" result="shape"/>
<feGaussianBlur stdDeviation="1.5" result="effect1_foregroundBlur_533_1426"/>
</filter>
<filter id="filter14_f_533_1426" x="1462" y="509.133" width="25.6866" height="25.6866" filterUnits="userSpaceOnUse" color-interpolation-filters="sRGB">
<feFlood flood-opacity="0" result="BackgroundImageFix"/>
<feBlend mode="normal" in="SourceGraphic" in2="BackgroundImageFix" result="shape"/>
<feGaussianBlur stdDeviation="1.5" result="effect1_foregroundBlur_533_1426"/>
</filter>
<filter id="filter15_f_533_1426" x="1456" y="862.133" width="25.6866" height="25.6866" filterUnits="userSpaceOnUse" color-interpolation-filters="sRGB">
<feFlood flood-opacity="0" result="BackgroundImageFix"/>
<feBlend mode="normal" in="SourceGraphic" in2="BackgroundImageFix" result="shape"/>
<feGaussianBlur stdDeviation="1.5" result="effect1_foregroundBlur_533_1426"/>
</filter>
<filter id="filter16_f_533_1426" x="1414" y="961" width="25.6866" height="25.6866" filterUnits="userSpaceOnUse" color-interpolation-filters="sRGB">
<feFlood flood-opacity="0" result="BackgroundImageFix"/>
<feBlend mode="normal" in="SourceGraphic" in2="BackgroundImageFix" result="shape"/>
<feGaussianBlur stdDeviation="1.5" result="effect1_foregroundBlur_533_1426"/>
</filter>
<filter id="filter17_f_533_1426" x="1623" y="901" width="25.6866" height="25.6866" filterUnits="userSpaceOnUse" color-interpolation-filters="sRGB">
<feFlood flood-opacity="0" result="BackgroundImageFix"/>
<feBlend mode="normal" in="SourceGraphic" in2="BackgroundImageFix" result="shape"/>
<feGaussianBlur stdDeviation="1.5" result="effect1_foregroundBlur_533_1426"/>
</filter>
<filter id="filter18_f_533_1426" x="1781" y="941.133" width="25.6866" height="25.6866" filterUnits="userSpaceOnUse" color-interpolation-filters="sRGB">
<feFlood flood-opacity="0" result="BackgroundImageFix"/>
<feBlend mode="normal" in="SourceGraphic" in2="BackgroundImageFix" result="shape"/>
<feGaussianBlur stdDeviation="1.5" result="effect1_foregroundBlur_533_1426"/>
</filter>
<filter id="filter19_f_533_1426" x="1179" y="970.133" width="25.6866" height="25.6866" filterUnits="userSpaceOnUse" color-interpolation-filters="sRGB">
<feFlood flood-opacity="0" result="BackgroundImageFix"/>
<feBlend mode="normal" in="SourceGraphic" in2="BackgroundImageFix" result="shape"/>
<feGaussianBlur stdDeviation="1.5" result="effect1_foregroundBlur_533_1426"/>
</filter>
<filter id="filter20_f_533_1426" x="1492" y="342.133" width="25.6866" height="25.6866" filterUnits="userSpaceOnUse" color-interpolation-filters="sRGB">
<feFlood flood-opacity="0" result="BackgroundImageFix"/>
<feBlend mode="normal" in="SourceGraphic" in2="BackgroundImageFix" result="shape"/>
<feGaussianBlur stdDeviation="1.5" result="effect1_foregroundBlur_533_1426"/>
</filter>
<filter id="filter21_f_533_1426" x="1620" y="201.133" width="25.6866" height="25.6866" filterUnits="userSpaceOnUse" color-interpolation-filters="sRGB">
<feFlood flood-opacity="0" result="BackgroundImageFix"/>
<feBlend mode="normal" in="SourceGraphic" in2="BackgroundImageFix" result="shape"/>
<feGaussianBlur stdDeviation="1.5" result="effect1_foregroundBlur_533_1426"/>
</filter>
<filter id="filter22_f_533_1426" x="1725" y="269.133" width="25.6866" height="25.6866" filterUnits="userSpaceOnUse" color-interpolation-filters="sRGB">
<feFlood flood-opacity="0" result="BackgroundImageFix"/>
<feBlend mode="normal" in="SourceGraphic" in2="BackgroundImageFix" result="shape"/>
<feGaussianBlur stdDeviation="1.5" result="effect1_foregroundBlur_533_1426"/>
</filter>
<filter id="filter23_f_533_1426" x="1612" y="392.133" width="25.6866" height="25.6866" filterUnits="userSpaceOnUse" color-interpolation-filters="sRGB">
<feFlood flood-opacity="0" result="BackgroundImageFix"/>
<feBlend mode="normal" in="SourceGraphic" in2="BackgroundImageFix" result="shape"/>
<feGaussianBlur stdDeviation="1.5" result="effect1_foregroundBlur_533_1426"/>
</filter>
<filter id="filter24_f_533_1426" x="1710" y="392.133" width="25.6866" height="25.6866" filterUnits="userSpaceOnUse" color-interpolation-filters="sRGB">
<feFlood flood-opacity="0" result="BackgroundImageFix"/>
<feBlend mode="normal" in="SourceGraphic" in2="BackgroundImageFix" result="shape"/>
<feGaussianBlur stdDeviation="1.5" result="effect1_foregroundBlur_533_1426"/>
</filter>
<filter id="filter25_f_533_1426" x="1774" y="467.133" width="25.6866" height="25.6866" filterUnits="userSpaceOnUse" color-interpolation-filters="sRGB">
<feFlood flood-opacity="0" result="BackgroundImageFix"/>
<feBlend mode="normal" in="SourceGraphic" in2="BackgroundImageFix" result="shape"/>
<feGaussianBlur stdDeviation="1.5" result="effect1_foregroundBlur_533_1426"/>
</filter>
<filter id="filter26_f_533_1426" x="1680" y="564.133" width="25.6866" height="25.6866" filterUnits="userSpaceOnUse" color-interpolation-filters="sRGB">
<feFlood flood-opacity="0" result="BackgroundImageFix"/>
<feBlend mode="normal" in="SourceGraphic" in2="BackgroundImageFix" result="shape"/>
<feGaussianBlur stdDeviation="1.5" result="effect1_foregroundBlur_533_1426"/>
</filter>
<filter id="filter27_f_533_1426" x="1862" y="731.133" width="25.6866" height="25.6866" filterUnits="userSpaceOnUse" color-interpolation-filters="sRGB">
<feFlood flood-opacity="0" result="BackgroundImageFix"/>
<feBlend mode="normal" in="SourceGraphic" in2="BackgroundImageFix" result="shape"/>
<feGaussianBlur stdDeviation="1.5" result="effect1_foregroundBlur_533_1426"/>
</filter>
<filter id="filter28_f_533_1426" x="1740" y="685.133" width="25.6866" height="25.6866" filterUnits="userSpaceOnUse" color-interpolation-filters="sRGB">
<feFlood flood-opacity="0" result="BackgroundImageFix"/>
<feBlend mode="normal" in="SourceGraphic" in2="BackgroundImageFix" result="shape"/>
<feGaussianBlur stdDeviation="1.5" result="effect1_foregroundBlur_533_1426"/>
</filter>
<filter id="filter29_f_533_1426" x="1627" y="762.133" width="25.6866" height="25.6866" filterUnits="userSpaceOnUse" color-interpolation-filters="sRGB">
<feFlood flood-opacity="0" result="BackgroundImageFix"/>
<feBlend mode="normal" in="SourceGraphic" in2="BackgroundImageFix" result="shape"/>
<feGaussianBlur stdDeviation="1.5" result="effect1_foregroundBlur_533_1426"/>
</filter>
<filter id="filter30_f_533_1426" x="332" y="325.133" width="25.6866" height="25.6866" filterUnits="userSpaceOnUse" color-interpolation-filters="sRGB">
<feFlood flood-opacity="0" result="BackgroundImageFix"/>
<feBlend mode="normal" in="SourceGraphic" in2="BackgroundImageFix" result="shape"/>
<feGaussianBlur stdDeviation="1.5" result="effect1_foregroundBlur_533_1426"/>
</filter>
<filter id="filter31_f_533_1426" x="324" y="177.133" width="25.6866" height="25.6866" filterUnits="userSpaceOnUse" color-interpolation-filters="sRGB">
<feFlood flood-opacity="0" result="BackgroundImageFix"/>
<feBlend mode="normal" in="SourceGraphic" in2="BackgroundImageFix" result="shape"/>
<feGaussianBlur stdDeviation="1.5" result="effect1_foregroundBlur_533_1426"/>
</filter>
<filter id="filter32_f_533_1426" x="156" y="127.133" width="25.6865" height="25.6866" filterUnits="userSpaceOnUse" color-interpolation-filters="sRGB">
<feFlood flood-opacity="0" result="BackgroundImageFix"/>
<feBlend mode="normal" in="SourceGraphic" in2="BackgroundImageFix" result="shape"/>
<feGaussianBlur stdDeviation="1.5" result="effect1_foregroundBlur_533_1426"/>
</filter>
<filter id="filter33_f_533_1426" x="113.853" y="482.185" width="25.6865" height="25.6866" filterUnits="userSpaceOnUse" color-interpolation-filters="sRGB">
<feFlood flood-opacity="0" result="BackgroundImageFix"/>
<feBlend mode="normal" in="SourceGraphic" in2="BackgroundImageFix" result="shape"/>
<feGaussianBlur stdDeviation="1.5" result="effect1_foregroundBlur_533_1426"/>
</filter>
<filter id="filter34_f_533_1426" x="71" y="685.133" width="25.6865" height="25.6866" filterUnits="userSpaceOnUse" color-interpolation-filters="sRGB">
<feFlood flood-opacity="0" result="BackgroundImageFix"/>
<feBlend mode="normal" in="SourceGraphic" in2="BackgroundImageFix" result="shape"/>
<feGaussianBlur stdDeviation="1.5" result="effect1_foregroundBlur_533_1426"/>
</filter>
<filter id="filter35_f_533_1426" x="322" y="600.133" width="25.6866" height="25.6866" filterUnits="userSpaceOnUse" color-interpolation-filters="sRGB">
<feFlood flood-opacity="0" result="BackgroundImageFix"/>
<feBlend mode="normal" in="SourceGraphic" in2="BackgroundImageFix" result="shape"/>
<feGaussianBlur stdDeviation="1.5" result="effect1_foregroundBlur_533_1426"/>
</filter>
<filter id="filter36_f_533_1426" x="171" y="810.133" width="25.6865" height="25.6866" filterUnits="userSpaceOnUse" color-interpolation-filters="sRGB">
<feFlood flood-opacity="0" result="BackgroundImageFix"/>
<feBlend mode="normal" in="SourceGraphic" in2="BackgroundImageFix" result="shape"/>
<feGaussianBlur stdDeviation="1.5" result="effect1_foregroundBlur_533_1426"/>
</filter>
<filter id="filter37_f_533_1426" x="307" y="919.133" width="25.6866" height="25.6866" filterUnits="userSpaceOnUse" color-interpolation-filters="sRGB">
<feFlood flood-opacity="0" result="BackgroundImageFix"/>
<feBlend mode="normal" in="SourceGraphic" in2="BackgroundImageFix" result="shape"/>
<feGaussianBlur stdDeviation="1.5" result="effect1_foregroundBlur_533_1426"/>
</filter>
<filter id="filter38_f_533_1426" x="844" y="973.133" width="25.6866" height="25.6866" filterUnits="userSpaceOnUse" color-interpolation-filters="sRGB">
<feFlood flood-opacity="0" result="BackgroundImageFix"/>
<feBlend mode="normal" in="SourceGraphic" in2="BackgroundImageFix" result="shape"/>
<feGaussianBlur stdDeviation="1.5" result="effect1_foregroundBlur_533_1426"/>
</filter>
<filter id="filter39_f_533_1426" x="1206" y="773" width="25.6866" height="25.6866" filterUnits="userSpaceOnUse" color-interpolation-filters="sRGB">
<feFlood flood-opacity="0" result="BackgroundImageFix"/>
<feBlend mode="normal" in="SourceGraphic" in2="BackgroundImageFix" result="shape"/>
<feGaussianBlur stdDeviation="1.5" result="effect1_foregroundBlur_533_1426"/>
</filter>
<clipPath id="clip0_533_1426">
<rect width="16" height="16" fill="white" transform="translate(1044 839.398) rotate(-15.4623)"/>
</clipPath>
<clipPath id="clip1_533_1426">
<rect width="16" height="16" fill="white" transform="translate(661 738.398) rotate(-15.4623)"/>
</clipPath>
<clipPath id="clip2_533_1426">
<rect width="16" height="16" fill="white" transform="translate(782 548.398) rotate(-15.4623)"/>
</clipPath>
<clipPath id="clip3_533_1426">
<rect width="16" height="16" fill="white" transform="translate(540 456.398) rotate(-15.4623)"/>
</clipPath>
<clipPath id="clip4_533_1426">
<rect width="16" height="16" fill="white" transform="translate(638 355.398) rotate(-15.4623)"/>
</clipPath>
<clipPath id="clip5_533_1426">
<rect width="16" height="16" fill="white" transform="translate(752 149.398) rotate(-15.4623)"/>
</clipPath>
<clipPath id="clip6_533_1426">
<rect width="16" height="16" fill="white" transform="translate(869 231.398) rotate(-15.4623)"/>
</clipPath>
<clipPath id="clip7_533_1426">
<rect width="16" height="16" fill="white" transform="translate(1038 164.398) rotate(-15.4623)"/>
</clipPath>
<clipPath id="clip8_533_1426">
<rect width="16" height="16" fill="white" transform="translate(1420 246.398) rotate(-15.4623)"/>
</clipPath>
<clipPath id="clip9_533_1426">
<rect width="16" height="16" fill="white" transform="translate(1154 325.398) rotate(-15.4623)"/>
</clipPath>
<clipPath id="clip10_533_1426">
<rect width="16" height="16" fill="white" transform="translate(1085 537.398) rotate(-15.4623)"/>
</clipPath>
<clipPath id="clip11_533_1426">
<rect width="16" height="16" fill="white" transform="translate(1473 650.398) rotate(-15.4623)"/>
</clipPath>
<clipPath id="clip12_533_1426">
<rect width="16" height="16" fill="white" transform="translate(1236 659.398) rotate(-15.4623)"/>
</clipPath>
<clipPath id="clip13_533_1426">
<rect width="16" height="16" fill="white" transform="translate(1325 542.398) rotate(-15.4623)"/>
</clipPath>
<clipPath id="clip14_533_1426">
<rect width="16" height="16" fill="white" transform="translate(1465 516.398) rotate(-15.4623)"/>
</clipPath>
<clipPath id="clip15_533_1426">
<rect width="16" height="16" fill="white" transform="translate(1459 869.398) rotate(-15.4623)"/>
</clipPath>
<clipPath id="clip16_533_1426">
<rect width="16" height="16" fill="white" transform="translate(1417 968.266) rotate(-15.4623)"/>
</clipPath>
<clipPath id="clip17_533_1426">
<rect width="16" height="16" fill="white" transform="translate(1626 908.266) rotate(-15.4623)"/>
</clipPath>
<clipPath id="clip18_533_1426">
<rect width="16" height="16" fill="white" transform="translate(1784 948.398) rotate(-15.4623)"/>
</clipPath>
<clipPath id="clip19_533_1426">
<rect width="16" height="16" fill="white" transform="translate(1182 977.398) rotate(-15.4623)"/>
</clipPath>
<clipPath id="clip20_533_1426">
<rect width="16" height="16" fill="white" transform="translate(1495 349.398) rotate(-15.4623)"/>
</clipPath>
<clipPath id="clip21_533_1426">
<rect width="16" height="16" fill="white" transform="translate(1623 208.398) rotate(-15.4623)"/>
</clipPath>
<clipPath id="clip22_533_1426">
<rect width="16" height="16" fill="white" transform="translate(1728 276.398) rotate(-15.4623)"/>
</clipPath>
<clipPath id="clip23_533_1426">
<rect width="16" height="16" fill="white" transform="translate(1615 399.398) rotate(-15.4623)"/>
</clipPath>
<clipPath id="clip24_533_1426">
<rect width="16" height="16" fill="white" transform="translate(1713 399.398) rotate(-15.4623)"/>
</clipPath>
<clipPath id="clip25_533_1426">
<rect width="16" height="16" fill="white" transform="translate(1777 474.398) rotate(-15.4623)"/>
</clipPath>
<clipPath id="clip26_533_1426">
<rect width="16" height="16" fill="white" transform="translate(1683 571.398) rotate(-15.4623)"/>
</clipPath>
<clipPath id="clip27_533_1426">
<rect width="16" height="16" fill="white" transform="translate(1865 738.398) rotate(-15.4623)"/>
</clipPath>
<clipPath id="clip28_533_1426">
<rect width="16" height="16" fill="white" transform="translate(1743 692.398) rotate(-15.4623)"/>
</clipPath>
<clipPath id="clip29_533_1426">
<rect width="16" height="16" fill="white" transform="translate(1630 769.398) rotate(-15.4623)"/>
</clipPath>
<clipPath id="clip30_533_1426">
<rect width="16" height="16" fill="white" transform="translate(335 332.398) rotate(-15.4623)"/>
</clipPath>
<clipPath id="clip31_533_1426">
<rect width="16" height="16" fill="white" transform="translate(327 184.398) rotate(-15.4623)"/>
</clipPath>
<clipPath id="clip32_533_1426">
<rect width="16" height="16" fill="white" transform="translate(159 134.398) rotate(-15.4623)"/>
</clipPath>
<clipPath id="clip33_533_1426">
<rect width="16" height="16" fill="white" transform="translate(116.853 489.45) rotate(-15.4623)"/>
</clipPath>
<clipPath id="clip34_533_1426">
<rect width="16" height="16" fill="white" transform="translate(74 692.398) rotate(-15.4623)"/>
</clipPath>
<clipPath id="clip35_533_1426">
<rect width="16" height="16" fill="white" transform="translate(325 607.398) rotate(-15.4623)"/>
</clipPath>
<clipPath id="clip36_533_1426">
<rect width="16" height="16" fill="white" transform="translate(174 817.398) rotate(-15.4623)"/>
</clipPath>
<clipPath id="clip37_533_1426">
<rect width="16" height="16" fill="white" transform="translate(310 926.398) rotate(-15.4623)"/>
</clipPath>
<clipPath id="clip38_533_1426">
<rect width="16" height="16" fill="white" transform="translate(847 980.398) rotate(-15.4623)"/>
</clipPath>
<clipPath id="clip39_533_1426">
<rect width="16" height="16" fill="white" transform="translate(1209 780.266) rotate(-15.4623)"/>
</clipPath>
</defs>
</svg>
